<svg width="71" height="71" viewBox="0 0 71 71" fill="none" xmlns="http://www.w3.org/2000/svg">
<rect x="1" y="1" width="69" height="69" rx="34.5" fill="white" fill-opacity="0.32"/>
<path fill-rule="evenodd" clip-rule="evenodd" d="M42.4513 37.123L41.9586 33.2193H44.249L43.1644 37.123H42.4513ZM43 37.8728H15V38.5869C15 39.0208 15.3518 39.3726 15.7857 39.3726H33.7471V44.9965H31.1585C30.7245 44.9965 30.3728 45.3482 30.3728 45.7822V46.4962H40.4962V45.7822C40.4962 45.3482 40.1445 44.9965 39.7105 44.9965H37.1216V39.3726H46.1657L46.266 39.0039H44.0501C43.8866 39.0039 43.7254 38.963 43.5792 38.8845C43.4331 38.8059 43.3061 38.6918 43.2083 38.5513C43.1105 38.4109 43.0448 38.2478 43.0162 38.0753C43.0051 38.0082 42.9997 37.9405 43 37.8728ZM53.3968 39.3726L54.5105 37.8728H55.8688V38.5869C55.8688 39.0208 55.517 39.3726 55.0831 39.3726H53.3968ZM55.0674 37.123L55.5356 36.4925L55.8689 37.123H55.0674ZM53.3105 32.4205H53.3833L53.3395 32.3377L53.3105 32.4205ZM50.5181 27H47.0219C46.7204 26.9998 46.4268 27.1039 46.1849 27.2969C45.943 27.49 45.7657 27.7616 45.6795 28.0713L45.5809 28.4263H41.3536L41.0511 26.0298H50.0053L50.5181 27ZM45.3589 29.2252L44.471 32.4205H41.8577L41.4544 29.2252H45.3589ZM41.6795 37.123L41.1868 33.2193H29.2761L28.7834 37.123L41.6795 37.123ZM28.0116 37.123H15L16.9518 33.2193H28.5043L28.0116 37.123ZM17.3512 32.4205H28.6051L29.0084 29.2252H18.9489L17.3512 32.4205ZM19.3483 28.4263H29.1092L29.4117 26.0298H20.5466L19.3483 28.4263ZM20.946 25.231H29.5126L29.6679 24H21.5615L20.946 25.231ZM30.4397 24L30.2844 25.231H40.1785L40.0231 24H30.4397ZM40.7949 24L40.9503 25.231H49.583L48.9324 24H40.7949ZM29.3769 32.4205H41.0859L40.6826 29.2252H29.7802L29.3769 32.4205ZM29.881 28.4263H40.5818L40.2793 26.0298H30.1835L29.881 28.4263Z" fill="#FFCE00"/>
<path d="M47.8728 28C47.6574 27.9998 47.4477 28.0841 47.2749 28.2404C47.1021 28.3967 46.9755 28.6165 46.9139 28.8673L45.0312 36.5465C44.9979 36.6825 44.9911 36.826 45.0116 36.9657C45.032 37.1054 45.079 37.2374 45.1488 37.3511C45.2186 37.4648 45.3093 37.5572 45.4137 37.6208C45.5181 37.6844 45.6333 37.7175 45.7501 37.7174H47.3329L46.053 43.0487C45.6691 44.6472 47.3769 45.721 48.2308 44.4188L54.8369 34.337C54.9248 34.2028 54.9797 34.0411 54.9954 33.8707C55.011 33.7002 54.9867 33.5278 54.9253 33.3734C54.8639 33.219 54.7678 33.0887 54.6482 32.9977C54.5285 32.9066 54.3902 32.8585 54.249 32.8587H52.2192L53.2131 29.641C53.2698 29.4574 53.289 29.2598 53.2691 29.0652C53.2492 28.8706 53.1909 28.6847 53.099 28.5234C53.0072 28.3622 52.8845 28.2303 52.7416 28.1392C52.5986 28.048 52.4397 28.0003 52.2782 28H47.8728Z" fill="#FFCE00"/>
<rect x="1" y="1" width="69" height="69" rx="34.5" stroke="url(#paint0_linear_161_835)" stroke-width="2"/>
<defs>
<linearGradient id="paint0_linear_161_835" x1="-28.8681" y1="-52.6648" x2="35.5" y2="71" gradientUnits="userSpaceOnUse">
<stop stop-color="white"/>
<stop offset="1" stop-color="white" stop-opacity="0"/>
</linearGradient>
</defs>
</svg>
