<svg width="71" height="71" viewBox="0 0 71 71" fill="none" xmlns="http://www.w3.org/2000/svg">
<rect x="1" y="1" width="69" height="69" rx="34.5" fill="white" fill-opacity="0.32"/>
<path fill-rule="evenodd" clip-rule="evenodd" d="M18.1311 44.5085H58.9999V45.2226C58.9999 45.6565 58.6481 46.0083 58.2142 46.0083H40.2527V51.6322H42.8416C43.2756 51.6322 43.6273 51.984 43.6273 52.4179V53.132H33.5039V52.4179C33.5039 51.984 33.8556 51.6322 34.2896 51.6322H36.8782V46.0083H18.9168C18.4829 46.0083 18.1311 45.6565 18.1311 45.2226V44.5085Z" fill="#FFCE00"/>
<path fill-rule="evenodd" clip-rule="evenodd" d="M45.5824 43.7588L45.0897 39.8551H56.9366L59 43.7588H45.5824ZM44.8106 43.7588L44.3179 39.8551H32.4072L31.9145 43.7587L44.8106 43.7588ZM31.1427 43.7587H18.1311L20.0829 39.8551H31.6354L31.1427 43.7587ZM20.4824 39.0563H31.7362L32.1395 35.8609H22.08L20.4824 39.0563ZM22.4794 35.0621H32.2403L32.5428 32.6656H23.6777L22.4794 35.0621ZM24.0771 31.8667H32.6437L32.799 30.6357H24.6926L24.0771 31.8667ZM33.5708 30.6357L33.4155 31.8667H43.3096L43.1542 30.6357H33.5708ZM43.926 30.6357L44.0814 31.8667H52.7141L52.0635 30.6357H43.926ZM53.1364 32.6656H44.1822L44.4847 35.0621H54.4031L53.1364 32.6656ZM54.8254 35.8609H44.5855L44.9889 39.0563H56.5144L54.8254 35.8609ZM32.508 39.0563H44.217L43.8137 35.8609H32.9113L32.508 39.0563ZM33.0122 35.0621H43.7129L43.4104 32.6656H33.3146L33.0122 35.0621Z" fill="#FFCE00"/>
<path fill-rule="evenodd" clip-rule="evenodd" d="M25.9909 21.0736C26.1926 21.6029 25.7345 22.1537 25.1707 22.0993C24.7845 22.0619 24.3934 22.0415 23.9975 22.0415C23.6017 22.0415 23.2108 22.0621 22.8245 22.0995C22.2608 22.1541 21.8031 21.6035 22.0049 21.0743L23.3214 17.6218C23.5584 17 24.4381 17.0001 24.6751 17.6219L25.9909 21.0736ZM31.9147 29.8859H36.7974C36.7729 29.632 36.6186 29.3897 36.3346 29.2814L32.8821 27.9649C32.353 27.7631 31.8024 28.2208 31.857 28.7845C31.8921 29.1475 31.9124 29.5146 31.9147 29.8859ZM30.6284 29.8859C30.6285 29.8705 30.6286 29.8551 30.6286 29.8397C30.6286 26.1122 27.6069 23.0905 23.8794 23.0905C20.152 23.0905 17.1302 26.1122 17.1302 29.8397C17.1302 32.5322 18.7069 34.8565 20.9874 35.9396L23.9287 29.8859H30.6284ZM15.1133 27.9652C15.6426 27.7634 16.1935 28.2215 16.139 28.7853C16.1017 29.1714 16.0813 29.562 16.0813 29.9575C16.0813 30.3538 16.1019 30.745 16.1393 31.1316C16.1939 31.6952 15.6434 32.1529 15.1142 31.9512L11.6617 30.6352C11.0399 30.3981 11.0398 29.5185 11.6616 29.2814L15.1133 27.9652ZM30.4959 25.3521C30.8593 25.7918 31.5775 25.7121 31.7977 25.186L33.2945 21.6102C33.5446 21.0125 32.9443 20.4121 32.3466 20.6622L28.7697 22.1589C28.2437 22.379 28.1639 23.0968 28.6035 23.46C28.9444 23.7417 29.2761 24.0406 29.5955 24.36C29.9151 24.6797 30.2142 25.0113 30.4959 25.3521ZM16.7051 33.5191L14.7016 38.3072C14.4515 38.9049 15.0519 39.5052 15.6496 39.255L19.2262 37.758C19.7521 37.5378 19.8319 36.82 19.3923 36.4569C19.0512 36.1751 18.7193 35.8759 18.3995 35.5561C17.7615 34.9181 17.2047 34.2316 16.7051 33.5191ZM19.2251 22.158C19.7513 22.3782 19.831 23.0965 19.3914 23.4598C19.0507 23.7414 18.7193 24.0403 18.4001 24.3595C18.0803 24.6793 17.7811 25.0112 17.4993 25.3523C17.1361 25.7919 16.4184 25.7122 16.1982 25.1862L14.7012 21.6096C14.451 21.0119 15.0513 20.4116 15.649 20.6617L19.2251 22.158Z" fill="#FFCE00"/>
<rect x="1" y="1" width="69" height="69" rx="34.5" stroke="url(#paint0_linear_161_811)" stroke-width="2"/>
<defs>
<linearGradient id="paint0_linear_161_811" x1="-28.8681" y1="-52.6648" x2="35.5" y2="71" gradientUnits="userSpaceOnUse">
<stop stop-color="white"/>
<stop offset="1" stop-color="white" stop-opacity="0"/>
</linearGradient>
</defs>
</svg>
