<svg width="1440" height="1006" viewBox="0 0 1440 1006" fill="none" xmlns="http://www.w3.org/2000/svg">
<path opacity="0.7" d="M0 0V75.6623M0 75.6623L240 103.24M0 75.6623V151.089L240 178.667V254.329M240 103.24V75.6623M240 103.24V151.089L480 178.667V254.329M240 0V75.6623M240 75.6623L480 103.24M480 103.24V75.6623M480 103.24V151.089L720 178.667V254.329M480 0V75.6623M480 75.6623L720 103.24M720 103.24V75.6623M720 103.24V151.089L960 178.667V254.329M720 0V75.6623M720 75.6623L960 103.24M960 103.24V75.6623M960 103.24V151.089L1200 178.667V254.329M960 0V75.6623M960 75.6623L1200 103.24M1200 103.24V75.6623M1200 103.24V151.089L1440 178.667M1200 0V75.6623M1200 75.6623L1440 103.24M0 178.667V254.329M0 254.329L240 281.907M0 254.329V329.755L240 357.333V432.996M240 281.907V254.329M240 281.907V329.755L480 357.333V432.996M240 254.329L480 281.907M480 281.907V254.329M480 281.907V329.755L720 357.333V432.996M480 254.329L720 281.907M720 281.907V254.329M720 281.907V329.755L960 357.333V432.996M720 254.329L960 281.907M960 281.907V254.329M960 281.907V329.755L1200 357.333V432.996M960 254.329L1200 281.907M1200 281.907V254.329M1200 281.907V329.755L1440 357.333M1200 254.329L1440 281.907M0 357.333V432.996M0 432.996L240 460.573M0 432.996V508.422L240 536V611.662M240 460.573V432.996M240 460.573V508.422L480 536V611.662M240 432.996L480 460.573M480 460.573V432.996M480 460.573V508.422L720 536V611.662M480 432.996L720 460.573M720 460.573V432.996M720 460.573V508.422L960 536V611.662M720 432.996L960 460.573M960 460.573V432.996M960 460.573V508.422L1200 536V611.662M960 432.996L1200 460.573M1200 460.573V432.996M1200 460.573V508.422L1440 536M1200 432.996L1440 460.573M0 536V611.662M0 611.662L240 639.24M0 611.662V687.089L240 714.667V790.329M240 639.24V611.662M240 639.24V687.089L480 714.667V790.329M240 611.662L480 639.24M480 639.24V611.662M480 639.24V687.089L720 714.667V790.329M480 611.662L720 639.24M720 639.24V611.662M720 639.24V687.089L960 714.667V790.329M720 611.662L960 639.24M960 639.24V611.662M960 639.24V687.089L1200 714.667V790.329M960 611.662L1200 639.24M1200 639.24V611.662M1200 639.24V687.089L1440 714.667M1200 611.662L1440 639.24M0 714.667V790.329M0 790.329L240 817.907M0 790.329V865.756L240 893.333V968.996M240 817.907V790.329M240 817.907V865.756L480 893.333V968.996M240 790.329L480 817.907M480 817.907V790.329M480 817.907V865.756L720 893.333V968.996M480 790.329L720 817.907M720 817.907V790.329M720 817.907V865.756L960 893.333V968.996M720 790.329L960 817.907M960 817.907V790.329M960 817.907V865.756L1200 893.333V968.996M960 790.329L1200 817.907M1200 817.907V790.329M1200 817.907V865.756L1440 893.333M1200 790.329L1440 817.907M0 893.333V968.996M0 968.996L240 996.573M0 968.996V1044.42L240 1072M240 996.573V968.996M240 996.573V1044.42L480 1072M240 968.996L480 996.573M480 996.573V968.996M480 996.573V1044.42L720 1072M480 968.996L720 996.573M720 996.573V968.996M720 996.573V1044.42L960 1072M720 968.996L960 996.573M960 996.573V968.996M960 996.573V1044.42L1200 1072M960 968.996L1200 996.573M1200 996.573V968.996M1200 996.573V1044.42L1440 1072M1200 968.996L1440 996.573" stroke="url(#paint0_radial_175_1947)"/>
<defs>
<radialGradient id="paint0_radial_175_1947" cx="0" cy="0" r="1" gradientUnits="userSpaceOnUse" gradientTransform="translate(756.5 345.5) rotate(95.5154) scale(379.758 510.123)">
<stop stop-color="#4F5D75" stop-opacity="0.16"/>
<stop offset="1" stop-color="#4F5D75" stop-opacity="0.04"/>
<stop offset="1" stop-color="#4F5D75" stop-opacity="0.04"/>
</radialGradient>
</defs>
</svg>
