<svg width="41" height="31" viewBox="0 0 41 31" fill="none" xmlns="http://www.w3.org/2000/svg">
<path d="M11.0814 28.87C10.0736 30.1018 8.98837 30.7947 7.82558 30.9487C6.74031 31.1026 5.77132 30.9102 4.91861 30.3713C4.06589 29.7554 3.60078 28.9085 3.52326 27.8307C3.44574 26.6759 3.94961 25.4441 5.03488 24.1353C5.96512 22.9805 6.70155 21.7873 7.24419 20.5555C7.86434 19.3237 8.2907 18.1689 8.52326 17.0911C6.12016 16.8601 4.18217 16.0132 2.7093 14.5505C1.23643 13.0108 0.5 11.0091 0.5 8.54553C0.5 6.00497 1.27519 3.96482 2.82558 2.42509C4.37597 0.808362 6.46899 0 9.10465 0C11.8178 0 13.9496 0.923841 15.5 2.77152C17.0504 4.54222 17.8256 7.12127 17.8256 10.5087C17.8256 13.2802 17.3605 16.2057 16.4302 19.2852C15.5775 22.2877 13.7946 25.4826 11.0814 28.87ZM33.7558 28.87C32.7481 30.1018 31.6628 30.7947 30.5 30.9487C29.4147 31.1026 28.4457 30.9102 27.593 30.3713C26.7403 29.7554 26.2752 28.9085 26.1977 27.8307C26.1202 26.6759 26.624 25.4441 27.7093 24.1353C28.6395 22.9805 29.376 21.7873 29.9186 20.5555C30.5388 19.3237 30.9651 18.1689 31.1977 17.0911C28.7946 16.8601 26.8566 16.0132 25.3837 14.5505C23.9109 13.0108 23.1744 11.0091 23.1744 8.54553C23.1744 6.00497 23.9496 3.96482 25.5 2.42509C27.0504 0.808362 29.1434 0 31.7791 0C34.4922 0 36.624 0.923841 38.1744 2.77152C39.7248 4.54222 40.5 7.12127 40.5 10.5087C40.5 13.2802 40.0349 16.2057 39.1047 19.2852C38.2519 22.2877 36.469 25.4826 33.7558 28.87Z" fill="#FFCE00"/>
</svg>
